<svg width="17" height="17" viewBox="0 0 17 17" fill="none" xmlns="http://www.w3.org/2000/svg">
    <path d="M9.87417 8.50014L15.7149 2.65912C16.095 2.27918 16.095 1.66485 15.7149 1.28496C15.335 0.905015 14.7207 0.905015 14.3408 1.28496L8.4999 7.12593L2.65921 1.28496C2.2791 0.905015 1.66502 0.905015 1.28508 1.28496C0.904972 1.6649 0.904972 2.27918 1.28508 2.65912L7.12573 8.50014L1.28513 14.3411C0.905017 14.721 0.905017 15.3354 1.28513 15.7153C1.37525 15.8057 1.48234 15.8773 1.60025 15.9262C1.71816 15.9751 1.84456 16.0001 1.9722 16C2.22093 16 2.46975 15.9048 2.65926 15.7153L8.4999 9.8743L14.3408 15.7153C14.431 15.8056 14.538 15.8773 14.656 15.9262C14.7739 15.975 14.9003 16.0001 15.0279 16C15.2766 16 15.5254 15.9048 15.7149 15.7153C16.095 15.3353 16.095 14.721 15.7149 14.3411L9.87417 8.50014Z" fill="black" stroke="#0B56A3" stroke-width="0.5"/>
</svg>
