<svg width="384" height="384" viewBox="0 0 384 384" xmlns="http://www.w3.org/2000/svg">
    <path
        fill="#000000"
        d="M353.188,252.052c-23.51,0 -46.594,-3.677 -68.469,-10.906c-10.917,-3.719 -23.302,-0.833 -30.438,6.417l-43.177,32.594c-50.073,-26.729 -80.917,-57.563 -107.281,-107.26l31.635,-42.052c8.219,-8.208 11.167,-20.198 7.635,-31.448c-7.26,-21.99 -10.948,-45.063 -10.948,-68.583C132.146,13.823 118.323,0 101.333,0H30.812C13.823,0 0,13.823 0,30.812C0,225.563 158.438,384 353.188,384c16.99,0 30.813,-13.823 30.813,-30.813v-70.323C384,265.875 370.177,252.052 353.188,252.052zM362.667,353.188c0,5.229 -4.25,9.479 -9.479,9.479c-182.99,0 -331.854,-148.865 -331.854,-331.854c0,-5.229 4.25,-9.479 9.479,-9.479h70.521c5.229,0 9.479,4.25 9.479,9.479c0,25.802 4.052,51.125 11.979,75.115c1.104,3.542 0.208,7.208 -3.375,10.938L82.75,165.427c-2.458,3.26 -2.844,7.625 -1,11.26c29.927,58.823 66.292,95.188 125.531,125.542c3.625,1.885 8.031,1.49 11.292,-0.979l49.677,-37.635c2.51,-2.51 6.26,-3.406 9.667,-2.25c24.156,7.979 49.479,12.021 75.271,12.021c5.229,0 9.479,4.25 9.479,9.479V353.188z"/>
    <path
        fill="#000000"
        d="M202.667,85.333h-21.333c-5.896,0 -10.667,4.771 -10.667,10.667s4.771,10.667 10.667,10.667h21.333c17.646,0 32,-14.354 32,-32c0,-17.646 -14.354,-32 -32,-32C196.781,42.667 192,37.885 192,32s4.781,-10.667 10.667,-10.667H224c5.896,0 10.667,-4.771 10.667,-10.667C234.667,4.771 229.896,0 224,0h-21.333c-17.646,0 -32,14.354 -32,32s14.354,32 32,32c5.885,0 10.667,4.781 10.667,10.667C213.333,80.552 208.552,85.333 202.667,85.333z"/>
    <path
        fill="#000000"
        d="M352,42.667c-5.885,0 -10.667,-4.781 -10.667,-10.667S346.115,21.333 352,21.333h21.333c5.896,0 10.667,-4.771 10.667,-10.667C384,4.771 379.229,0 373.333,0H352c-17.646,0 -32,14.354 -32,32s14.354,32 32,32c5.885,0 10.667,4.781 10.667,10.667c0,5.885 -4.781,10.667 -10.667,10.667h-21.333C324.771,85.333 320,90.104 320,96s4.771,10.667 10.667,10.667H352c17.646,0 32,-14.354 32,-32C384,57.021 369.646,42.667 352,42.667z"/>
    <path
        fill="#000000"
        d="M277.333,106.667c17.646,0 32,-14.354 32,-32V32c0,-17.646 -14.354,-32 -32,-32c-17.646,0 -32,14.354 -32,32v42.667C245.333,92.313 259.688,106.667 277.333,106.667zM266.667,32c0,-5.885 4.781,-10.667 10.667,-10.667C283.219,21.333 288,26.115 288,32v42.667c0,5.885 -4.781,10.667 -10.667,10.667c-5.885,0 -10.667,-4.781 -10.667,-10.667V32z"/>
</svg>
