<svg xmlns="http://www.w3.org/2000/svg" xmlns:xlink="http://www.w3.org/1999/xlink" version="1.1" width="256" height="256" viewBox="0 0 256 256" xml:space="preserve">

<defs>
</defs>
<g style="stroke: none; stroke-width: 0; stroke-dasharray: none; stroke-linecap: butt; stroke-linejoin: miter; stroke-miterlimit: 10; fill: none; fill-rule: nonzero; opacity: 1;" transform="translate(1.4065934065934016 1.4065934065934016) scale(2.81 2.81)" >
	<path d="M 45 81.889 c -11.691 0 -21.202 -9.511 -21.202 -21.201 S 33.309 39.485 45 39.485 c 11.69 0 21.202 9.512 21.202 21.202 S 56.69 81.889 45 81.889 z M 45 41.485 c -10.588 0 -19.202 8.614 -19.202 19.202 S 34.412 79.889 45 79.889 s 19.202 -8.613 19.202 -19.201 S 55.588 41.485 45 41.485 z" style="stroke: none; stroke-width: 1; stroke-dasharray: none; stroke-linecap: butt; stroke-linejoin: miter; stroke-miterlimit: 10; fill: rgb(0,0,0); fill-rule: nonzero; opacity: 1;" transform=" matrix(1 0 0 1 0 0) " stroke-linecap="round" />
	<path d="M 71.227 68.699 H 63.95 v -2 h 7.276 C 80.476 66.699 88 59.175 88 49.926 s -7.524 -16.774 -16.773 -16.774 h -1.229 l -0.103 -0.885 C 68.433 19.636 57.73 10.111 45 10.111 s -23.433 9.525 -24.895 22.156 l -0.102 0.885 h -1.229 C 9.525 33.152 2 40.677 2 49.926 s 7.525 16.773 16.774 16.773 h 7.276 v 2 h -7.276 C 8.422 68.699 0 60.277 0 49.926 c 0 -10.172 8.131 -18.48 18.235 -18.766 C 20.196 17.958 31.55 8.111 45 8.111 s 24.804 9.847 26.766 23.049 C 81.869 31.445 90 39.754 90 49.926 C 90 60.277 81.578 68.699 71.227 68.699 z" style="stroke: none; stroke-width: 1; stroke-dasharray: none; stroke-linecap: butt; stroke-linejoin: miter; stroke-miterlimit: 10; fill: rgb(0,0,0); fill-rule: nonzero; opacity: 1;" transform=" matrix(1 0 0 1 0 0) " stroke-linecap="round" />
	<path d="M 52.972 69.616 c -0.256 0 -0.512 -0.098 -0.707 -0.293 L 36.407 53.466 c -0.391 -0.391 -0.391 -1.023 0 -1.414 s 1.023 -0.391 1.414 0 l 15.858 15.857 c 0.391 0.391 0.391 1.023 0 1.414 C 53.483 69.519 53.228 69.616 52.972 69.616 z" style="stroke: none; stroke-width: 1; stroke-dasharray: none; stroke-linecap: butt; stroke-linejoin: miter; stroke-miterlimit: 10; fill: rgb(0,0,0); fill-rule: nonzero; opacity: 1;" transform=" matrix(1 0 0 1 0 0) " stroke-linecap="round" />
	<path d="M 37.114 69.616 c -0.256 0 -0.512 -0.098 -0.707 -0.293 c -0.391 -0.391 -0.391 -1.023 0 -1.414 l 15.858 -15.857 c 0.391 -0.391 1.023 -0.391 1.414 0 s 0.391 1.023 0 1.414 L 37.821 69.323 C 37.625 69.519 37.37 69.616 37.114 69.616 z" style="stroke: none; stroke-width: 1; stroke-dasharray: none; stroke-linecap: butt; stroke-linejoin: miter; stroke-miterlimit: 10; fill: rgb(0,0,0); fill-rule: nonzero; opacity: 1;" transform=" matrix(1 0 0 1 0 0) " stroke-linecap="round" />
</g>
</svg>